<?xml version="1.0" encoding="UTF-8"?>
<svg width="120px" height="130px" viewBox="0 0 120 130" version="1.1" xmlns="http://www.w3.org/2000/svg" xmlns:xlink="http://www.w3.org/1999/xlink">
    <title>Artboard 5</title>
    <g id="Page-1" stroke="none" stroke-width="1" fill="none" fill-rule="evenodd">
        <g id="Artboard-5" fill="#3964F9" fill-rule="nonzero">
            <polygon id="Path" points="86.81 48.33 80.81 48.33 80.81 99.14 1.61 99.14 1.61 105.14 18.59 105.14 18.59 112.45 1.61 112.45 1.61 118.45 18.59 118.45 18.59 127.63 24.59 127.63 24.59 105.14 49.54 105.14 49.54 128.77 55.54 128.77 55.54 105.14 80.81 105.14 80.81 128.77 86.81 128.77 86.81 105.14 101.33 105.14 101.33 128.77 107.33 128.77 107.33 105.14 118.39 105.14 118.39 99.14 86.81 99.14 86.81 67.54 118.39 67.54 118.39 61.54 86.81 61.54"></polygon>
            <path d="M38,63.3500048 C43.9386505,63.3334424 48.7410122,58.5087191 48.7300004,52.5700557 C48.7189507,46.6313924 43.8986989,41.8245426 37.9600279,41.8300417 C32.0213568,41.8355503 27.21,46.6513264 27.21,52.59 C27.2210359,58.5397236 32.0502688,63.3555295 38,63.3500048 L38,63.3500048 Z M38,43.8399943 C41.544906,43.8359556 44.7428196,45.9687773 46.1012654,49.2430712 C47.4597111,52.5173651 46.7108784,56.287621 44.2042497,58.7942497 C41.697621,61.3008784 37.9273651,62.0497111 34.6530712,60.6912654 C31.3787773,59.3328196 29.2459556,56.134906 29.2499943,52.59 C29.2609976,47.7620711 33.1720711,43.8509976 38,43.8399943 L38,43.8399943 Z" id="Shape"></path>
            <path d="M118.39,47.33 L57,47.33 C54.6357242,38.7430277 46.8265085,32.7933513 37.92,32.7933513 C29.0134915,32.7933513 21.2042758,38.7430277 18.84,47.33 L1.61,47.33 C1.05771525,47.33 0.61,47.7777153 0.61,48.33 L0.61,128.77 C0.61,129.322285 1.05771525,129.77 1.61,129.77 L118.39,129.77 C118.942285,129.77 119.39,129.322285 119.39,128.77 L119.39,48.33 C119.39,47.7777153 118.942285,47.33 118.39,47.33 Z M38,34.7796322 C46.2810665,34.764312 53.468736,40.4862118 55.31,48.56 L55.31,48.56 C55.6115362,49.8720904 55.7658229,51.2137133 55.77,52.56 C55.77,67.15 41.49,86.84 37.96,91.49 C34.43,86.84 20.15,67.15 20.15,52.56 C20.1541771,51.2137133 20.3084638,49.8720904 20.61,48.56 C22.4577907,40.4568748 29.6890352,34.7267685 38,34.7796322 L38,34.7796322 Z M117.43,127.78 L2.61,127.78 L2.61,49.33 L18.42,49.33 C18.2403722,50.4073763 18.150065,51.4977519 18.15,52.59 C18.15,69.85 36.4,92.81 37.15,93.78 C37.3397968,94.0165713 37.6267035,94.1542205 37.93,94.1542205 C38.2332965,94.1542205 38.5202032,94.0165713 38.71,93.78 C39.49,92.78 57.71,69.85 57.71,52.59 C57.709935,51.4977519 57.6196278,50.4073763 57.44,49.33 L117.33,49.33 L117.43,127.78 Z" id="Shape"></path>
            <path d="M12.66,16.71 C13.4553814,16.7092998 14.2179306,16.3927699 14.78,15.83 C27.5839105,3.03274819 48.3360895,3.03274819 61.14,15.83 C62.322039,16.9314354 64.1640389,16.8989355 65.3064872,15.7564872 C66.4489355,14.6140389 66.4814354,12.772039 65.38,11.59 C58.1087703,4.31586775 48.2451243,0.229058722 37.96,0.229058722 C27.6748757,0.229058722 17.8112297,4.31586775 10.54,11.59 C9.37018649,12.7612702 9.37018649,14.6587298 10.54,15.83 C11.1020694,16.3927699 11.8646186,16.7092998 12.66,16.71 Z" id="Path"></path>
            <path d="M56,24.0000512 C56.7953814,23.9992998 57.5579306,23.6827699 58.12,23.12 C59.2898135,21.9487298 59.2898135,20.0512702 58.12,18.88 C52.7733065,13.5331019 45.5215111,10.5292287 37.96,10.5292287 C30.3984889,10.5292287 23.1466935,13.5331019 17.8,18.88 C16.8678112,20.0720484 16.9693616,21.7717418 18.0368532,22.8443167 C19.1043448,23.9168917 20.8035366,24.0265154 22,23.1 C30.793681,14.3107845 45.046319,14.3107845 53.84,23.1 C54.4084949,23.6800085 55.1878585,24.0047433 56,24.0000512 L56,24.0000512 Z" id="Path"></path>
            <path d="M25.07,26.12 C24.3108106,26.877403 24.0133604,27.9822951 24.289696,29.0184739 C24.5660315,30.0546527 25.374171,30.8646982 26.409696,31.1434739 C27.445221,31.4222497 28.5508106,31.1274031 29.31,30.37 C31.6024348,28.0726997 34.7145653,26.78168 37.96,26.78168 C41.2054347,26.78168 44.3175652,28.0726997 46.61,30.37 C47.1737029,30.9291042 47.9360512,31.2419547 48.73,31.24 C49.5253814,31.2392998 50.2879306,30.9227699 50.85,30.36 C52.0198135,29.1887298 52.0198135,27.2912702 50.85,26.12 C43.7308695,19.0014843 32.1891305,19.0014843 25.07,26.12 L25.07,26.12 Z" id="Path"></path>
        </g>
    </g>
</svg>