<?xml version="1.0" encoding="UTF-8"?>
<svg width="58px" height="126px" viewBox="0 0 58 126" version="1.1" xmlns="http://www.w3.org/2000/svg" xmlns:xlink="http://www.w3.org/1999/xlink">
    <title>Artboard 6</title>
    <g id="Page-1" stroke="none" stroke-width="1" fill="none" fill-rule="evenodd">
        <g id="Artboard-6" fill="#3964F9" fill-rule="nonzero">
            <path d="M54.06,62.93 C53.5077153,62.93 53.06,63.3777153 53.06,63.93 L53.06,76.36 C53.06,89.6479711 42.2879711,100.42 29,100.42 C15.7120289,100.42 4.94,89.6479711 4.94,76.36 L4.94,63.93 C4.94,63.3777153 4.49228475,62.93 3.94,62.93 C3.38771525,62.93 2.94,63.3777153 2.94,63.93 L2.94,76.36 C2.9721968,90.3434761 14.0271843,101.813136 28,102.36 L28,123.71 L7.07,123.71 C6.51771525,123.71 6.07,124.157715 6.07,124.71 C6.07,125.262285 6.51771525,125.71 7.07,125.71 L50.93,125.71 C51.4822847,125.71 51.93,125.262285 51.93,124.71 C51.93,124.157715 51.4822847,123.71 50.93,123.71 L30,123.71 L30,102.39 C43.9728157,101.843136 55.0278032,90.3734761 55.06,76.39 L55.06,63.93 C55.06,63.3777153 54.6122847,62.93 54.06,62.93 Z" id="Path"></path>
            <path d="M13.28,59 C13.8322847,59 14.28,58.5522847 14.28,58 L14.28,51.5 C14.28,43.3703685 20.8703685,36.78 29,36.78 C37.1296315,36.78 43.72,43.3703685 43.72,51.5 L43.72,58 C43.72,58.5522847 44.1677153,59 44.72,59 C45.2722847,59 45.72,58.5522847 45.72,58 L45.72,51.5 C45.72,42.265799 38.234201,34.78 29,34.78 C19.765799,34.78 12.28,42.265799 12.28,51.5 L12.28,58 C12.28,58.5522847 12.7277153,59 13.28,59 Z" id="Path"></path>
            <path d="M29,93.08 C38.2296323,93.0689795 45.7089795,85.5896323 45.72,76.36 L45.72,69.52 C45.72,68.9677153 45.2722847,68.52 44.72,68.52 C44.1677153,68.52 43.72,68.9677153 43.72,69.52 L43.72,76.36 C43.72,84.4896315 37.1296315,91.08 29,91.08 C20.8703685,91.08 14.28,84.4896315 14.28,76.36 L14.28,69.52 C14.28,68.9677153 13.8322847,68.52 13.28,68.52 C12.7277153,68.52 12.28,68.9677153 12.28,69.52 L12.28,76.36 C12.2910205,85.5896323 19.7703677,93.0689795 29,93.08 Z" id="Path"></path>
            <path d="M44.72,57 L13.28,57 C12.7277153,57 12.28,57.4477153 12.28,58 L12.28,69.52 C12.28,70.0722847 12.7277153,70.52 13.28,70.52 L44.72,70.52 C45.2722847,70.52 45.72,70.0722847 45.72,69.52 L45.72,58 C45.72,57.4477153 45.2722847,57 44.72,57 Z M43.72,68.51 L14.28,68.51 L14.28,59 L43.72,59 L43.72,68.51 Z" id="Shape"></path>
            <path d="M29,0.23 C18.7088607,0.198712671 8.83378201,4.28991959 1.58,11.59 C0.478564558,12.772039 0.511064496,14.6140389 1.6535128,15.7564872 C2.79596111,16.8989355 4.63796098,16.9314354 5.82,15.83 C18.6239105,3.03274819 39.3760895,3.03274819 52.18,15.83 C53.3512702,16.9998135 55.2487298,16.9998135 56.42,15.83 C57.5898135,14.6587298 57.5898135,12.7612702 56.42,11.59 C49.166218,4.28991959 39.2911393,0.198712671 29,0.23 Z" id="Path"></path>
            <path d="M29,10.51 C21.4337694,10.4854065 14.1729906,13.4927231 8.84,18.86 C7.73856456,20.042039 7.7710645,21.8840389 8.9135128,23.0264872 C10.0559611,24.1689355 11.897961,24.2014354 13.08,23.1 C21.873681,14.3107845 36.126319,14.3107845 44.92,23.1 C46.0912702,24.2698135 47.9887298,24.2698135 49.16,23.1 C50.3298135,21.9287298 50.3298135,20.0312702 49.16,18.86 C43.8270094,13.4927231 36.5662306,10.4854065 29,10.51 L29,10.51 Z" id="Path"></path>
            <path d="M20.35,30.37 C22.6424348,28.0726997 25.7545653,26.78168 29,26.78168 C32.2454347,26.78168 35.3575652,28.0726997 37.65,30.37 C38.8236051,31.5408437 40.7241563,31.5386051 41.895,30.365 C43.0658437,29.1913949 43.0636051,27.2908437 41.89,26.12 C34.7708695,19.0014843 23.2291305,19.0014843 16.11,26.12 C15.3508106,26.877403 15.0533604,27.9822951 15.329696,29.0184739 C15.6060315,30.0546527 16.414171,30.8646982 17.449696,31.1434739 C18.485221,31.4222497 19.5908106,31.1274031 20.35,30.37 L20.35,30.37 Z" id="Path"></path>
        </g>
    </g>
</svg>