<svg id="Layer_1" data-name="Layer 1" xmlns="http://www.w3.org/2000/svg" viewBox="0 0 150 150"><defs><style>.cls-1{fill:#8eabc4;}.cls-2{fill:#55697c;}</style></defs><title>Artboard 2</title><path class="cls-1" d="M78.07,113.5H41.64v-6.36a1.5,1.5,0,0,0-3,0V115a1.5,1.5,0,0,0,1.5,1.5H78.07a1.5,1.5,0,0,0,0-3Z"/><path class="cls-1" d="M66.08,89.78V81.15A26.1,26.1,0,0,0,47.34,56.24a14.26,14.26,0,1,0-14.37,0A26.4,26.4,0,0,0,14.2,81.63v8.15a8.86,8.86,0,0,0,8.86,8.86H57.22A8.86,8.86,0,0,0,66.08,89.78ZM28.89,44A11.26,11.26,0,1,1,40.16,55.21h0A11.27,11.27,0,0,1,28.89,44ZM17.2,89.78V81.63A23.22,23.22,0,0,1,40.14,58.21h.45A23,23,0,0,1,63.08,81.15v8.63a5.87,5.87,0,0,1-5.86,5.86H23.06A5.87,5.87,0,0,1,17.2,89.78Z"/><path class="cls-1" d="M129.06,93.78H124.6V86.91a13.42,13.42,0,0,0-26.83,0v6.87H93.31a6.74,6.74,0,0,0-6.74,6.74v33a6.74,6.74,0,0,0,6.74,6.74h35.75a6.74,6.74,0,0,0,6.74-6.74v-33A6.74,6.74,0,0,0,129.06,93.78Zm-28.29-6.87a10.42,10.42,0,0,1,20.83,0v6.87H100.77Zm32,46.57a3.75,3.75,0,0,1-3.74,3.74H93.31a3.75,3.75,0,0,1-3.74-3.74v-33a3.75,3.75,0,0,1,3.74-3.74h35.75a3.75,3.75,0,0,1,3.74,3.74Z"/><path class="cls-1" d="M98.27,42.05a1.28,1.28,0,0,0,0,2.56h1a1.28,1.28,0,0,0,0-2.56Z"/><path class="cls-1" d="M40.14,22.7a1.5,1.5,0,0,0,1.5-1.5V14.84h68V65a1.5,1.5,0,0,0,3,0V13.34a1.5,1.5,0,0,0-1.5-1.5h-71a1.5,1.5,0,0,0-1.5,1.5V21.2A1.5,1.5,0,0,0,40.14,22.7Z"/><path class="cls-2" d="M90.89,34.4A1.5,1.5,0,0,0,89,36.7l6.16,5.13H64.81a1.5,1.5,0,0,0,0,3H95.13L89,50a1.49,1.49,0,0,0-.19,2.11,1.49,1.49,0,0,0,2.11.19l9.34-7.79a1.5,1.5,0,0,0,.54-1.15,1.49,1.49,0,0,0-.54-1.15Z"/><path class="cls-2" d="M111.48,110.09a1.45,1.45,0,0,0-.3,0,1.53,1.53,0,0,0-.3,0,4.2,4.2,0,0,0-1.2,8.12v4.23a1.5,1.5,0,0,0,3,0v-4.23a4.2,4.2,0,0,0-1.2-8.12Z"/></svg>