<?xml version="1.0" encoding="UTF-8"?>
<svg width="140px" height="99px" viewBox="0 0 140 99" version="1.1" xmlns="http://www.w3.org/2000/svg" xmlns:xlink="http://www.w3.org/1999/xlink">
    <title>Artboard 4</title>
    <g id="Page-1" stroke="none" stroke-width="1" fill="none" fill-rule="evenodd">
        <g id="Artboard-4" fill="#3964F9" fill-rule="nonzero">
            <path d="M108.94,6.22 L15.1,6.22 C14.5477153,6.22 14.1,6.66771525 14.1,7.22 L14.1,48.54 C14.1,49.0922847 14.5477153,49.54 15.1,49.54 C15.6522847,49.54 16.1,49.0922847 16.1,48.54 L16.1,8.22 L107.94,8.22 L107.94,41.53 C107.94,42.0822847 108.387715,42.53 108.94,42.53 C109.492285,42.53 109.94,42.0822847 109.94,41.53 L109.94,7.22 C109.94,6.66771525 109.492285,6.22 108.94,6.22 Z" id="Path"></path>
            <path d="M78.75,33.61 C76.9305485,33.6142535 75.1668968,34.2385862 73.75,35.38 C72.9657119,29.9099501 68.6670265,25.6129518 63.1966691,24.8308111 C57.7263118,24.0486703 52.3957224,26.968894 50.11,32 C46.6809848,30.5115133 42.6920426,31.248369 40.0210975,33.8636683 C37.3501524,36.4789677 36.5294901,40.4515146 37.9454639,43.9111037 C39.3614376,47.3706928 42.7318619,49.6278716 46.47,49.6200205 L71.7,49.6200205 C72.2522847,49.6200205 72.7,49.1722847 72.7,48.62 C72.7,48.0677153 72.2522847,47.62 71.7,47.62 L46.47,47.62 C43.4374813,47.6233155 40.7289044,45.7236138 39.6992655,42.871242 C38.6696266,40.0188703 39.5403159,36.827138 41.8757613,34.8927451 C44.2112067,32.9583522 47.5092468,32.6972269 50.12,34.24 C50.3775973,34.3914203 50.6894105,34.419714 50.9700556,34.3171333 C51.2507008,34.2145527 51.4707694,33.9918471 51.57,33.71 C53.2461239,28.8934374 58.1568039,25.9927507 63.1841711,26.849632 C68.2115383,27.7065133 71.8840626,32.0701501 71.87,37.17 C71.87,37.3 71.87,37.42 71.87,37.54 L71.87,37.76 C71.847671,38.2123619 72.1321617,38.6232526 72.563445,38.7615445 C72.9947282,38.8998364 73.4651105,38.7309974 73.71,38.35 C75.1285616,36.0926776 77.8664792,35.0421443 80.4309085,35.7712014 C82.9953377,36.5002584 84.7711145,38.8340171 84.79,41.5 C84.7850365,41.5465347 84.7850365,41.5934653 84.79,41.64 C84.8038072,42.1922847 85.2627153,42.628807 85.815,42.6149999 C86.3672847,42.6011928 86.8038071,42.1422847 86.79,41.59 C86.7938792,41.5233898 86.7938792,41.4566102 86.79,41.39 C86.6704556,37.0422877 83.0992926,33.58661 78.75,33.61 Z" id="Path"></path>
            <path d="M71.7,66.2 L29.11,66.2 C28.5577153,66.2 28.11,66.6477153 28.11,67.2 C28.11,67.7522847 28.5577153,68.2 29.11,68.2 L71.7,68.2 C72.2522847,68.2 72.7,67.7522847 72.7,67.2 C72.7,66.6477153 72.2522847,66.2 71.7,66.2 Z" id="Path"></path>
            <path d="M62,76.9999901 C59.9444226,76.9999901 58.0914408,78.238791 57.3057429,80.1382849 C56.5200449,82.0377788 56.9565041,84.2235598 58.4114482,85.6756397 C59.8663922,87.1277197 62.0530289,87.5598711 63.9509709,86.7704318 C65.848913,85.9809926 67.0840464,84.1255734 67.0800099,82.07 C67.0800099,80.723618 66.5444709,79.4325259 65.5914976,78.4814284 C64.6385242,77.530331 63.3463794,76.9973444 62,76.9999901 Z M62,85.15 C60.7542563,85.15 59.6311765,84.3995821 59.154451,83.248665 C58.6777256,82.0977479 58.9412373,80.7729849 59.8221111,79.8921111 C60.7029849,79.0112373 62.0277479,78.7477256 63.178665,79.224451 C64.3295821,79.7011765 65.08,80.8242563 65.08,82.07 C65.0744898,83.7671305 63.6971394,85.1400089 62,85.14 L62,85.15 Z" id="Shape"></path>
            <path d="M133.88,40.53 L122.24,40.53 L122.24,34.82 C122.250667,33.5453488 121.751774,32.3192358 120.854192,31.414142 C119.956609,30.5090482 118.734696,29.9999554 117.46,30 L115.74,30 L115.74,1.42 C115.74,0.86771525 115.292285,0.42 114.74,0.42 L9.31,0.42 C8.75771525,0.42 8.31,0.86771525 8.31,1.42 L8.31,47.54 L5.41,47.54 C2.47736798,47.54 0.1,49.917368 0.1,52.85 L0.1,93.14 C0.1,94.5482996 0.659444822,95.8989188 1.65526299,96.894737 C2.65108116,97.8905552 4.00170044,98.45 5.41,98.45 L24.8,98.45 C27.732632,98.45 30.11,96.072632 30.11,93.14 L30.11,74 L48.94,74 L48.94,90.13 L37.09,90.13 C36.5377153,90.13 36.09,90.5777153 36.09,91.13 L36.09,97.45 C36.09,98.0022847 36.5377153,98.45 37.09,98.45 L133.88,98.45 C137.252177,98.4444944 139.984494,95.7121767 139.99,92.34 L139.99,46.64 C139.984494,43.2678233 137.252177,40.5355056 133.88,40.53 Z M85.94,42.53 L124.75,42.53 L124.75,96.45 L85.94,96.45 L85.94,42.53 Z M90.4498383,40.53 L90.4498383,34.82 C90.4420013,34.0765921 90.7310388,33.360737 91.2529697,32.8312963 C91.7749005,32.3018556 92.4865537,32.0026217 93.23,32 L113.74,32 L113.74,40.49 L90.4498383,40.53 Z M117.45,32.04 C118.983074,32.0454851 120.224515,33.2869262 120.23,34.82 L120.23,40.53 L115.73,40.53 L115.73,32 L117.45,32.04 Z M5.45,49.54 L24.8,49.54 C26.6280625,49.54 28.11,51.0219375 28.11,52.85 L28.11,53.85 L2.1,53.85 L2.1,52.85 C2.1,51.0219375 3.58193748,49.54 5.41,49.54 L5.45,49.54 Z M2.1,55.86 L28.1,55.86 L28.1,90.13 L2.1,90.13 L2.1,55.86 Z M24.8,96.45 L5.41,96.45 C3.58193748,96.45 2.1,94.9680625 2.1,93.14 L2.1,92.14 L28.1,92.14 L28.1,93.14 C28.1,94.9641644 26.6241561,96.4444889 24.8,96.45 L24.8,96.45 Z M30.11,54.86 L30.11,52.86 C30.11,49.927368 27.732632,47.55 24.8,47.55 L10.31,47.55 L10.31,2.42 L113.74,2.42 L113.74,30 L93.23,30 C90.5900789,30 88.45,32.1400789 88.45,34.78 L88.45,40.49 L76.81,40.49 C73.4378233,40.4955056 70.7055056,43.2278233 70.7,46.6 L70.7,72 L30.11,72 L30.11,54.86 Z M76.81,96.45 C74.5401097,96.45 72.7,94.6098903 72.7,92.34 L72.7,46.64 C72.7,44.3701097 74.5401097,42.53 76.81,42.53 L78.52,42.53 L78.52,96.45 L76.81,96.45 Z M50.94,74 L70.7,74 L70.7,90.13 L50.94,90.13 L50.94,74 Z M38.09,92.13 L70.7,92.13 L70.7,92.34 C70.7020599,93.861605 71.2727266,95.3275049 72.3,96.45 L38.09,96.45 L38.09,92.13 Z M80.52,42.53 L83.94,42.53 L83.94,96.45 L80.52,96.45 L80.52,42.53 Z M126.75,42.53 L130.17,42.53 L130.17,96.45 L126.75,96.45 L126.75,42.53 Z M138,92.34 C138,94.6098903 136.15989,96.45 133.89,96.45 L132.18,96.45 L132.18,42.53 L133.89,42.53 C136.15989,42.53 138,44.3701097 138,46.64 L138,92.34 Z" id="Shape"></path>
        </g>
    </g>
</svg>