<?xml version="1.0" encoding="UTF-8"?>
<svg width="120px" height="126px" viewBox="0 0 120 126" version="1.1" xmlns="http://www.w3.org/2000/svg" xmlns:xlink="http://www.w3.org/1999/xlink">
    <title>Artboard 3</title>
    <g id="Page-1" stroke="none" stroke-width="1" fill="none" fill-rule="evenodd">
        <g id="Artboard-3" fill="#3964F9" fill-rule="nonzero">
            <path d="M62.66,94.07 L62.66,83.6 C62.5829156,69.3457921 52.8371279,56.9637811 39,53.54 C46.0521988,50.1596807 49.8267017,42.3492092 48.0934367,34.7232103 C46.3601717,27.0972114 39.5804902,21.6855338 31.76,21.6855338 C23.9395098,21.6855338 17.1598283,27.0972114 15.4265633,34.7232103 C13.6932983,42.3492092 17.4678012,50.1596807 24.52,53.54 C10.5320205,57.1198935 0.761184614,69.741243 0.799884766,84.18 L0.799884766,94.07 C0.805500617,99.7026448 5.36736328,104.26898 11,104.28 L52.45,104.28 C58.0865424,104.274487 62.6544875,99.7065424 62.66,94.07 L62.66,94.07 Z M17.5399888,38.48 C17.5303082,30.6690992 23.8308493,24.3168594 31.6415685,24.2627218 C39.4522877,24.2085842 45.8402764,30.4728773 45.9388581,38.283162 C46.0374398,46.0934467 39.8095973,52.5169774 32,52.66 L31.5,52.66 C23.7683047,52.5080054 17.5710898,46.2131267 17.5399888,38.48 L17.5399888,38.48 Z M3.36,94.07 L3.36,84.18 C3.36,68.38 15.96,55.39 31.46,55.18 L32,55.18 C32.1031071,55.1896697 32.2068929,55.1896697 32.31,55.18 C47.7365912,55.5749115 60.0509458,68.1684328 60.1,83.6 L60.1,94.07 C60.0944909,98.2926943 56.6726943,101.714491 52.45,101.72 L11,101.72 C6.78121146,101.708988 3.3654932,98.2887993 3.36,94.07 Z" id="Shape"></path>
            <path d="M111.26,0.06 L38.39,0.06 C34.0048591,0.06 30.45,3.61485909 30.45,8 L30.45,13 C30.5085549,13.6605309 31.0618788,14.1669735 31.725,14.1669735 C32.3881212,14.1669735 32.9414451,13.6605309 33,13 L33,8 C33.0055156,5.03261404 35.4126089,2.62999487 38.38,2.63 L111.25,2.63 C112.676865,2.62734537 114.046345,3.19162084 115.057166,4.19869172 C116.067988,5.20576261 116.63735,6.57313452 116.64,8 L116.64,118 C116.634484,120.967386 114.227391,123.370005 111.26,123.37 L38.39,123.37 C36.9631345,123.372655 35.5936555,122.808379 34.5828339,121.801308 C33.5720123,120.794237 33.0026497,119.426865 33,118 L33,113 C33,112.293076 32.4269245,111.72 31.72,111.72 C31.0130755,111.72 30.44,112.293076 30.44,113 L30.44,118 C30.4455179,122.381235 33.9987614,125.930006 38.38,125.930006 L111.25,125.930006 C113.355819,125.932654 115.376444,125.098665 116.867359,123.611501 C118.358273,122.124337 119.19735,120.105819 119.2,118 L119.2,8 C119.2,3.61485909 115.645141,0.06 111.26,0.06 Z" id="Path"></path>
            <path d="M85,74.67 L85,74.67 C81.5337899,74.8064554 78.7941161,77.656105 78.7941161,81.125 C78.7941161,84.593895 81.5337899,87.4435446 85,87.58 L85,87.58 C87.3667501,87.6731726 89.594704,86.4636407 90.8057966,84.428096 C92.0168893,82.3925514 92.0168893,79.8574486 90.8057966,77.821904 C89.594704,75.7863593 87.3667501,74.5768274 85,74.67 L85,74.67 Z M87.45,83.56 C86.7974831,84.2038673 85.9166962,84.5633722 85,84.5600235 L85,84.5600235 C84.0871883,84.5585855 83.2112608,84.1995988 82.56,83.56 C81.5729003,82.5732902 81.2775444,81.0890431 81.8117062,79.7996117 C82.3458679,78.5101803 83.6043059,77.6696102 85,77.6699824 L85,77.6699824 C86.397515,77.6655519 87.659665,78.5046356 88.1963956,79.7949798 C88.7331262,81.0853239 88.4383995,82.5720049 87.45,83.56 L87.45,83.56 Z" id="Shape"></path>
            <path d="M85,42.33 C74.697906,42.2978001 64.8119855,46.3926239 57.55,53.7 C56.3801865,54.8712702 56.3801865,56.7687298 57.55,57.94 C58.7212702,59.1098135 60.6187298,59.1098135 61.79,57.94 C74.5950556,45.1360836 95.3549444,45.1360836 108.16,57.94 C109.342039,59.0414354 111.184039,59.0089355 112.326487,57.8664872 C113.468936,56.7240389 113.501435,54.882039 112.4,53.7 C105.14895,46.4068506 95.2843319,42.3133942 85,42.33 L85,42.33 Z" id="Path"></path>
            <path d="M85,52.6099074 C77.4210475,52.5906185 70.1512459,55.613098 64.82,61 C63.9631188,61.8579473 63.7069672,63.1473683 64.1708521,64.2676941 C64.634737,65.3880198 65.7274334,66.1189335 66.94,66.12 C67.7353814,66.1192998 68.4979306,65.8027699 69.06,65.24 C77.8502501,56.4519294 92.0997499,56.4519294 100.89,65.24 C102.072039,66.3414354 103.914039,66.3089355 105.056487,65.1664872 C106.198936,64.0240389 106.231435,62.182039 105.13,61 C99.8109363,55.625452 92.5616248,52.6040052 85,52.6099074 L85,52.6099074 Z" id="Path"></path>
            <path d="M85,62.8899181 C80.162803,62.878126 75.5216611,64.8008333 72.11,68.23 C71.0085646,69.412039 71.0410645,71.2540389 72.1835128,72.3964872 C73.3259611,73.5389355 75.167961,73.5714354 76.35,72.47 C81.1288742,67.6966282 88.8711258,67.6966282 93.65,72.47 C94.2120694,73.0327699 94.9746186,73.3492998 95.77,73.3500091 C96.9843869,73.352983 98.0807885,72.6235534 98.5472397,71.5023185 C99.013691,70.3810836 98.758173,69.0892343 97.9,68.23 C94.4858981,64.7983655 89.8406607,62.8754532 85,62.8899181 Z" id="Path"></path>
        </g>
    </g>
</svg>